<svg xmlns="http://www.w3.org/2000/svg" width="490.85" height="322.62" viewBox="0 0 490.85 322.62"><title>404</title><rect x="10.86" y="23.32" width="355.31" height="298.33" rx="7.15" fill="#fce7e4"/><line x1="10.86" y1="59.22" x2="366.17" y2="59.22" fill="none" stroke="#fefef4" stroke-miterlimit="10" stroke-width="1.94"/><rect x="10.86" y="23.32" width="355.31" height="298.33" rx="7.15" fill="none" stroke="#fefef4" stroke-miterlimit="10" stroke-width="1.94"/><circle cx="40.9" cy="41.64" r="5.01" fill="none" stroke="#fefef4" stroke-miterlimit="10" stroke-width="1.94"/><circle cx="60.37" cy="41.64" r="5.01" fill="none" stroke="#fefef4" stroke-miterlimit="10" stroke-width="1.94"/><circle cx="79.83" cy="41.64" r="5.01" fill="none" stroke="#fefef4" stroke-miterlimit="10" stroke-width="1.94"/><rect x="296.12" y="127.23" width="194.73" height="151.93" rx="13.05" fill="#407ffe"/><text transform="translate(320.35 232.64)" font-size="69.36" fill="#fefef4" font-family="Roboto-Regular, Roboto">404</text><circle cx="316.27" cy="141.57" r="3.69" fill="none" stroke="#fefef4" stroke-miterlimit="10" stroke-width="1.43"/><circle cx="330.61" cy="141.57" r="3.69" fill="none" stroke="#fefef4" stroke-miterlimit="10" stroke-width="1.43"/><circle cx="344.96" cy="141.57" r="3.69" fill="none" stroke="#fefef4" stroke-miterlimit="10" stroke-width="1.43"/><line x1="296.12" y1="156.97" x2="490.85" y2="156.97" fill="none" stroke="#fefef4" stroke-miterlimit="10" stroke-width="1.43"/><path d="M395.81,303.37l-.74-10-62.55,3.07v9.69s-14.07,13.38-19.62,102.42H425.49S437.84,329.72,395.81,303.37Z" transform="translate(-188.73 -87.8)" fill="#407ffe"/><line x1="143.8" y1="218.3" x2="207.08" y2="215.57" fill="none" stroke="#000" stroke-miterlimit="10" stroke-width="1.55"/><polyline points="156.73 259.35 169.69 264.63 176.63 320.72" fill="none" stroke="#000" stroke-miterlimit="10" stroke-width="1.55"/><path d="M264.14,284l17.28-57,38,14.24-18.24,54.63A19.45,19.45,0,0,1,264.14,284Z" transform="translate(-188.73 -87.8)" fill="#f26e5a"/><path d="M290.8,196.47A20.62,20.62,0,1,1,330.08,209l-10.65,32.16-38-14.24Z" transform="translate(-188.73 -87.8)" fill="#fefef4"/><path d="M293.49,279.7l-43.41-82.31s1-14.87-23.71-15.76v0c-.33,0-.67-.05-1-.05h-8.25a3.12,3.12,0,0,0-3.14,2.6,3,3,0,0,0,2.64,3.48l8.33,1.18-11.33,3-2.12.78-15.43-10.19a2.5,2.5,0,0,0-3.06,3.95c1,.8,2.49,2.11,4.16,3.56l-3.41-2a2.5,2.5,0,0,0-2.73,4.19l3,2.14-1.18-.46a3,3,0,0,0-3.63,1,2.94,2.94,0,0,0,1.28,4.39l16.86,7.06c2.91,1.22,5.7,2,9.12,1.17l15-3.55L265.17,298Z" transform="translate(-188.73 -87.8)" fill="#f26e5a"/><line x1="86.95" y1="158.12" x2="94.98" y2="173.35" fill="none" stroke="#db5749" stroke-miterlimit="10" stroke-width="1.5"/><path d="M324.59,182.12l-16.14,1.21S285.09,215,332.52,296.41l62.55-3.07,4.71-87.7-7.72-24.89H364Z" transform="translate(-188.73 -87.8)" fill="#fefef4"/><path d="M306.28,236.25s-4.66-9.79-1.67-31.47" transform="translate(-188.73 -87.8)" fill="none" stroke="#fce7e4" stroke-miterlimit="10" stroke-width="1.55"/><path d="M451.46,272.52l-26-53.64-35.32,20L416.71,290a19.45,19.45,0,0,0,34.75-17.48Z" transform="translate(-188.73 -87.8)" fill="#f26e5a"/><path d="M411.47,190.26a20.62,20.62,0,1,0-36.84,18.53l15.54,30.1,35.32-20Z" transform="translate(-188.73 -87.8)" fill="#fefef4"/><line x1="201.45" y1="151.09" x2="188.61" y2="126.23" fill="none" stroke="#fce7e4" stroke-miterlimit="10" stroke-width="1.55"/><path d="M505.68,180.75a3.05,3.05,0,0,0-3.62-1l-7.55,2.94,7.09-6a3,3,0,0,0,.61-4,3,3,0,0,0-4.26-.61l-6.59,5.31L497,170a3,3,0,0,0-.26-4,2.93,2.93,0,0,0-4.29.31l-11.1,11.52-11.33-3,8.33-1.18a3.05,3.05,0,0,0,2.64-3.47,3.13,3.13,0,0,0-3.14-2.6h-8.26a19.81,19.81,0,0,0-13.25,4.94l-.18.13c-5.06,4-3.22,12.18-3.22,12.18l-31.11,88.08,30.83,13.68L470.42,192l11.35,0a12.39,12.39,0,0,0,2.11,0H484a12.13,12.13,0,0,0,3.57-.88l16.86-6A3,3,0,0,0,505.68,180.75Z" transform="translate(-188.73 -87.8)" fill="#f26e5a"/><line x1="245.17" y1="148.45" x2="238.45" y2="171.91" fill="none" stroke="#db5749" stroke-miterlimit="10" stroke-width="1.5"/><path d="M323.34,109.46c-1.95,1.34-15,4.73-15.25,7.09,0,0,4.29,16.77-.1,19.9-11.88,8.46-15.68,25.05-15.68,25.05S323.65,185,407,160.33c0,0,1-10-14.15-17.23a23.82,23.82,0,0,1-10.6-9.41,18.35,18.35,0,0,1-2.67-7.61C378.14,117.85,355.44,87.44,323.34,109.46Z" transform="translate(-188.73 -87.8)"/><path d="M324.57,134.6a10,10,0,1,1-10.66-9.27A10,10,0,0,1,324.57,134.6Z" transform="translate(-188.73 -87.8)" fill="#db5749"/><path d="M329.08,159.07l1.38,21.72c.47,7.63,3.59,12.83,11.1,12.31h0c6.41-.45,14-5.58,14.38-12L352.12,147Z" transform="translate(-188.73 -87.8)" fill="#f26e5a"/><path d="M324.59,182.12,364,180.75s-.95,19.39-24.4,17.57C323.34,197.06,324.59,182.12,324.59,182.12Z" transform="translate(-188.73 -87.8)" fill="#f26e5a"/><polygon points="141.49 89.17 166.7 64.52 140.17 69.04 141.49 89.17" fill="#db5749"/><path d="M335.69,162.58h0c-12.83,0-23.43-10.07-23.82-20.55l-.75-24.74a24.37,24.37,0,0,1,22.66-25.2h0c13.42-.93,27.41,9,28.35,22.46l.39,19.9C362.82,149.84,351.05,161.51,335.69,162.58Z" transform="translate(-188.73 -87.8)" fill="#f26e5a"/><polyline points="136.61 45.52 135.87 51.66 139.04 51.78" fill="none" stroke="#000" stroke-linecap="round" stroke-linejoin="round" stroke-width="1.24"/><path d="M338,118.33s-7.09-.58-7.16,2.3c0,0,0,2,6.19,2.34s7.8-.06,8.37-1.9S341.34,118.35,338,118.33Z" transform="translate(-188.73 -87.8)"/><path d="M317.46,122.54s5.37-.43,5.87,2.17c0,0,.3,1.75-4.4,2s-6.16-.31-6.25-1.8C312.57,123.16,314.9,122.52,317.46,122.54Z" transform="translate(-188.73 -87.8)"/><path d="M320.57,131a2.27,2.27,0,1,1-2.34-2.2A2.27,2.27,0,0,1,320.57,131Z" transform="translate(-188.73 -87.8)"/><path d="M339.63,130.35a2.27,2.27,0,1,1-2.34-2.19A2.27,2.27,0,0,1,339.63,130.35Z" transform="translate(-188.73 -87.8)"/><path d="M333,143.85s-3.35-1.53-7.4,2" transform="translate(-188.73 -87.8)" fill="none" stroke="#000" stroke-linecap="round" stroke-linejoin="round" stroke-width="1.24"/><path d="M341.72,87.84a30.56,30.56,0,0,0-9.52,1c-7.69,2-21.5,7.74-23.86,22.5-.79,3.9-.25,5.2-.25,5.2s25.79,1,41-6.18c2.2,9.28,4.22,15,13.4,24.08l8.15-12.25,9.17,8.23C379.9,130.74,379.88,89.87,341.72,87.84Z" transform="translate(-188.73 -87.8)"/><path d="M375.9,134.7a10,10,0,1,1-10.66-9.27A10,10,0,0,1,375.9,134.7Z" transform="translate(-188.73 -87.8)" fill="#f26e5a"/><path d="M362.12,138.25s-.5-7.23,6.48-6.57" transform="translate(-188.73 -87.8)" fill="none" stroke="#000" stroke-linecap="round" stroke-linejoin="round" stroke-width="1.24"/></svg>